<svg width="24" height="21" viewBox="0 0 24 21" fill="none" xmlns="http://www.w3.org/2000/svg">
<path d="M3 0C1.34531 0 0 1.34531 0 3V6C0 7.65469 1.34531 9 3 9H21C22.6547 9 24 7.65469 24 6V3C24 1.34531 22.6547 0 21 0H3ZM16.125 3.375C16.4234 3.375 16.7095 3.49353 16.9205 3.7045C17.1315 3.91548 17.25 4.20163 17.25 4.5C17.25 4.79837 17.1315 5.08452 16.9205 5.2955C16.7095 5.50647 16.4234 5.625 16.125 5.625C15.8266 5.625 15.5405 5.50647 15.3295 5.2955C15.1185 5.08452 15 4.79837 15 4.5C15 4.20163 15.1185 3.91548 15.3295 3.7045C15.5405 3.49353 15.8266 3.375 16.125 3.375ZM18.375 4.5C18.375 4.20163 18.4935 3.91548 18.7045 3.7045C18.9155 3.49353 19.2016 3.375 19.5 3.375C19.7984 3.375 20.0845 3.49353 20.2955 3.7045C20.5065 3.91548 20.625 4.20163 20.625 4.5C20.625 4.79837 20.5065 5.08452 20.2955 5.2955C20.0845 5.50647 19.7984 5.625 19.5 5.625C19.2016 5.625 18.9155 5.50647 18.7045 5.2955C18.4935 5.08452 18.375 4.79837 18.375 4.5ZM3 12C1.34531 12 0 13.3453 0 15V18C0 19.6547 1.34531 21 3 21H21C22.6547 21 24 19.6547 24 18V15C24 13.3453 22.6547 12 21 12H3ZM16.125 15.375C16.4234 15.375 16.7095 15.4935 16.9205 15.7045C17.1315 15.9155 17.25 16.2016 17.25 16.5C17.25 16.7984 17.1315 17.0845 16.9205 17.2955C16.7095 17.5065 16.4234 17.625 16.125 17.625C15.8266 17.625 15.5405 17.5065 15.3295 17.2955C15.1185 17.0845 15 16.7984 15 16.5C15 16.2016 15.1185 15.9155 15.3295 15.7045C15.5405 15.4935 15.8266 15.375 16.125 15.375ZM18.75 16.5C18.75 16.2016 18.8685 15.9155 19.0795 15.7045C19.2905 15.4935 19.5766 15.375 19.875 15.375C20.1734 15.375 20.4595 15.4935 20.6705 15.7045C20.8815 15.9155 21 16.2016 21 16.5C21 16.7984 20.8815 17.0845 20.6705 17.2955C20.4595 17.5065 20.1734 17.625 19.875 17.625C19.5766 17.625 19.2905 17.5065 19.0795 17.2955C18.8685 17.0845 18.75 16.7984 18.75 16.5Z" fill="white"/>
</svg>
